<svg xmlns="http://www.w3.org/2000/svg" viewBox="0 0 1600 900" role="img" aria-labelledby="title desc"><title id="title">Cherry Studio 安装使用指南封面</title><desc id="desc">桌面 AI 客户端连接多个模型服务的示意图</desc><style>.ui{font-family:-apple-system,BlinkMacSystemFont,'Segoe UI','PingFang SC',sans-serif}</style><rect width="1600" height="900" fill="#f6f8fc"/><path d="M1220 0h380v380z" fill="#e9efff"/><text class="ui" x="110" y="145" fill="#3568e8" font-size="30" font-weight="700">国内工具 · 桌面客户端</text><text class="ui" x="110" y="265" fill="#20242c" font-size="88" font-weight="800">Cherry Studio</text><text class="ui" x="110" y="340" fill="#4b5565" font-size="38">安装客户端，安全连接第一个模型</text><g transform="translate(110 435)" class="ui"><rect width="1380" height="350" rx="28" fill="#fff" stroke="#dce2ef" stroke-width="3"/><rect width="270" height="350" rx="28" fill="#20242c"/><text x="45" y="70" fill="#fff" font-size="26" font-weight="700">模型服务</text><rect x="40" y="110" width="190" height="54" rx="14" fill="#3568e8"/><text x="70" y="145" fill="#fff" font-size="22">服务商 A</text><text x="70" y="215" fill="#cbd5e1" font-size="22">服务商 B</text><text x="70" y="275" fill="#cbd5e1" font-size="22">本地模型</text><text x="340" y="70" fill="#20242c" font-size="27" font-weight="700">新对话</text><rect x="340" y="105" width="690" height="90" rx="18" fill="#f2f5fb"/><text x="375" y="155" fill="#4b5565" font-size="24">请帮我整理这段会议记录……</text><rect x="600" y="235" width="430" height="70" rx="18" fill="#e9efff"/><text x="635" y="278" fill="#3568e8" font-size="23">已使用：服务商 A / 模型 1</text><rect x="1090" y="75" width="230" height="210" rx="20" fill="#f8fafc" stroke="#dce2ef"/><text x="1125" y="125" fill="#20242c" font-size="24" font-weight="700">连接检查</text><text x="1125" y="180" fill="#0f8f6f" font-size="22">● 已连接</text><text x="1125" y="230" fill="#667085" font-size="20">密钥仅作示意</text></g></svg>
