<svg xmlns="http://www.w3.org/2000/svg" viewBox="0 0 1600 900" role="img" aria-labelledby="title desc"><title id="title">ComfyUI 安装与入门指南封面</title><desc id="desc">多个图像生成节点相互连接的工作流示意图</desc><rect width="1600" height="900" fill="#f6f8fc"/><path d="M1250 0h350v350z" fill="#e9efff"/><text x="110" y="145" fill="#3568e8" font-size="30" font-weight="700" font-family="-apple-system,BlinkMacSystemFont,'Segoe UI','PingFang SC',sans-serif">图像生成 · 节点工作流</text><text x="110" y="265" fill="#20242c" font-size="96" font-weight="800" font-family="-apple-system,BlinkMacSystemFont,'Segoe UI','PingFang SC',sans-serif">ComfyUI</text><text x="110" y="340" fill="#4b5565" font-size="38" font-family="-apple-system,BlinkMacSystemFont,'Segoe UI','PingFang SC',sans-serif">安装桌面版并跑通第一个工作流</text>
  <g transform="translate(110 440)" font-family="-apple-system,BlinkMacSystemFont,'Segoe UI','PingFang SC',sans-serif"><rect width="1380" height="350" rx="30" fill="#20242c"/><path d="M300 170C430 170 420 95 550 95M820 95C940 95 925 185 1045 185" fill="none" stroke="#7aa2ff" stroke-width="9"/><path d="M300 220C430 220 420 265 550 265M820 265C940 265 925 215 1045 215" fill="none" stroke="#65d6ad" stroke-width="9"/>
    <g><rect x="70" y="95" width="230" height="170" rx="20" fill="#fff"/><rect x="70" y="95" width="230" height="48" rx="20" fill="#3568e8"/><text x="95" y="127" fill="#fff" font-size="22" font-weight="700">加载模型</text><text x="95" y="190" fill="#4b5565" font-size="21">Checkpoint</text><text x="95" y="230" fill="#667085" font-size="19">本地模型文件</text></g>
    <g><rect x="550" y="45" width="270" height="270" rx="20" fill="#fff"/><rect x="550" y="45" width="270" height="48" rx="20" fill="#6b5dd3"/><text x="575" y="77" fill="#fff" font-size="22" font-weight="700">采样器</text><text x="575" y="145" fill="#4b5565" font-size="21">提示词 + 参数</text><text x="575" y="205" fill="#667085" font-size="19">步骤 / 种子 / CFG</text><rect x="575" y="245" width="200" height="18" rx="9" fill="#dce2ef"/></g>
    <g><rect x="1045" y="105" width="260" height="150" rx="20" fill="#fff"/><rect x="1045" y="105" width="260" height="48" rx="20" fill="#0f8f6f"/><text x="1070" y="137" fill="#fff" font-size="22" font-weight="700">保存图像</text><text x="1070" y="205" fill="#4b5565" font-size="21">output/</text></g>
  </g></svg>
